<svg xmlns="http://www.w3.org/2000/svg" width="512" height="512"><g fill="#FFF"><path d="M384 264.533c0 23.526 19.14 42.667 42.667 42.667 14.114 0 25.6 11.486 25.6 25.6s-11.486 25.6-25.6 25.6-25.6-11.486-25.6-25.6a8.53 8.53 0 0 0-8.533-8.533 8.53 8.53 0 0 0-8.533 8.533c0 23.526 19.14 42.667 42.667 42.667s42.667-19.14 42.667-42.667c0-23.526-19.14-42.667-42.667-42.667-14.114 0-25.6-11.486-25.6-25.6s11.486-25.6 25.6-25.6 25.6 11.486 25.6 25.6a8.53 8.53 0 0 0 8.533 8.533 8.53 8.53 0 0 0 8.533-8.533c0-23.526-19.14-42.667-42.667-42.667S384 241.007 384 264.533z"/><path d="M503.467 187.733H409.6v-68.267H298.667a8.53 8.53 0 0 1-8.533-8.533V0H8.533A8.53 8.53 0 0 0 0 8.533v494.933A8.53 8.53 0 0 0 8.533 512h392.533a8.53 8.53 0 0 0 8.533-8.533V409.6h93.867a8.53 8.53 0 0 0 8.533-8.533v-204.8a8.53 8.53 0 0 0-8.532-8.534zm-8.534 204.8h-256V204.8h256v187.733z"/><path d="M323.724 227.405c-1.271-3.405-4.198-5.751-8.235-5.538a8.515 8.515 0 0 0-7.893 5.99L264.929 364.39a8.528 8.528 0 0 0 5.598 10.692c4.446 1.382 9.276-1.109 10.684-5.606l14.131-45.21h46.473l17.126 45.662a8.55 8.55 0 0 0 7.996 5.538c.998 0 2.005-.179 2.995-.538 4.412-1.664 6.648-6.579 4.992-10.991l-51.2-136.532zM300.675 307.2l15.795-50.543 18.944 50.543h-34.739zM307.2 5v97.399h97.399z"/></g></svg>