<?xml version="1.0" standalone="no"?>
<!DOCTYPE svg PUBLIC "-//W3C//DTD SVG 20010904//EN"
 "http://www.w3.org/TR/2001/REC-SVG-20010904/DTD/svg10.dtd">
<svg version="1.0" xmlns="http://www.w3.org/2000/svg"
 width="304.000000pt" height="304.000000pt" viewBox="0 0 304.000000 304.000000"
 preserveAspectRatio="xMidYMid meet">
<metadata>
Created by potrace 1.11, written by Peter Selinger 2001-2013
</metadata>
<g transform="translate(0.000000,304.000000) scale(0.100000,-0.100000)"
fill="#000000" stroke="none">
<path d="M1112 2945 c-66 -15 -119 -51 -156 -104 -147 -212 50 -482 298 -409
44 13 44 13 96 57 108 90 117 271 17 375 -73 76 -157 103 -255 81z"/>
<path d="M790 2336 c-68 -19 -111 -42 -157 -85 -94 -89 -99 -122 -98 -566 1
-396 0 -391 64 -421 63 -30 136 -16 168 33 16 24 18 57 20 338 0 170 2 317 2
326 1 22 32 34 43 17 4 -7 8 -423 8 -923 0 -869 1 -912 19 -945 46 -86 178
-101 248 -28 l28 29 2 567 c0 312 2 574 2 583 1 11 10 16 34 15 l32 -1 1 -576
c0 -638 -3 -610 65 -645 74 -38 164 -18 206 45 26 38 24 -51 23 1336 0 438 2
524 14 540 12 17 17 18 28 7 10 -10 13 -79 14 -310 1 -163 2 -311 3 -329 1
-21 11 -42 32 -62 26 -26 38 -31 80 -31 61 0 104 21 124 60 23 44 22 724 -2
802 -27 92 -87 158 -190 206 l-58 27 -355 2 c-259 1 -367 -2 -400 -11z"/>
<path d="M2195 2282 c-27 -6 -53 -30 -76 -72 -11 -19 -40 -66 -64 -105 -123
-192 -133 -216 -94 -251 19 -17 40 -19 243 -20 129 -1 229 3 241 9 46 23 46
60 0 133 -19 30 -35 56 -35 58 0 3 -18 32 -40 65 -22 33 -40 65 -40 71 0 5 -4
10 -9 10 -5 0 -14 13 -21 29 -21 51 -65 81 -105 73z"/>
<path d="M1975 1728 c-57 -33 -48 -61 73 -253 159 -250 166 -250 324 0 108
171 121 204 94 241 -13 18 -30 19 -243 21 -159 2 -234 -1 -248 -9z"/>
</g>
</svg>
