<?xml version="1.0" encoding="iso-8859-1"?>
<!-- Generator: Adobe Illustrator 19.0.0, SVG Export Plug-In . SVG Version: 6.00 Build 0)  -->
<svg xmlns="http://www.w3.org/2000/svg" xmlns:xlink="http://www.w3.org/1999/xlink" version="1.1" id="Layer_1" x="0px" y="0px" viewBox="0 0 512 512" style="enable-background:new 0 0 512 512;" xml:space="preserve" width="512px" height="512px">
<g>
	<g>
		<g>
			<path d="M384,264.533c0,23.526,19.14,42.667,42.667,42.667c14.114,0,25.6,11.486,25.6,25.6c0,14.114-11.486,25.6-25.6,25.6     s-25.6-11.486-25.6-25.6c0-4.71-3.814-8.533-8.533-8.533c-4.719,0-8.533,3.823-8.533,8.533c0,23.526,19.14,42.667,42.667,42.667     s42.667-19.14,42.667-42.667c0-23.526-19.14-42.667-42.667-42.667c-14.114,0-25.6-11.486-25.6-25.6s11.486-25.6,25.6-25.6     s25.6,11.486,25.6,25.6c0,4.71,3.814,8.533,8.533,8.533c4.719,0,8.533-3.823,8.533-8.533c0-23.526-19.14-42.667-42.667-42.667     S384,241.007,384,264.533z" fill="#FFFFFF"/>
			<path d="M503.467,187.733H409.6v-68.267H298.667c-4.719,0-8.533-3.823-8.533-8.533V0H8.533C3.814,0,0,3.823,0,8.533v494.933     C0,508.177,3.814,512,8.533,512h392.533c4.719,0,8.533-3.823,8.533-8.533V409.6h93.867c4.719,0,8.533-3.823,8.533-8.533v-204.8     C512,191.556,508.186,187.733,503.467,187.733z M494.933,392.533h-93.867H238.933V204.8h162.133h93.867V392.533z" fill="#FFFFFF"/>
			<path d="M323.724,227.405c-1.271-3.405-4.198-5.751-8.235-5.538c-3.635,0.102-6.818,2.509-7.893,5.99L264.929,364.39     c-1.408,4.497,1.092,9.284,5.598,10.692c4.446,1.382,9.276-1.109,10.684-5.606l14.131-45.21h46.473l17.126,45.662     c1.289,3.422,4.54,5.538,7.996,5.538c0.998,0,2.005-0.179,2.995-0.538c4.412-1.664,6.648-6.579,4.992-10.991L323.724,227.405z      M300.675,307.2l15.795-50.543l18.944,50.543H300.675z" fill="#FFFFFF"/>
			<polygon points="307.2,5 307.2,102.399 404.599,102.399    " fill="#FFFFFF"/>
		</g>
	</g>
</g>
<g>
</g>
<g>
</g>
<g>
</g>
<g>
</g>
<g>
</g>
<g>
</g>
<g>
</g>
<g>
</g>
<g>
</g>
<g>
</g>
<g>
</g>
<g>
</g>
<g>
</g>
<g>
</g>
<g>
</g>
</svg>
